# xmcd
#
# Track frame offsets: 
#        150
#        17991
#        40210
#        59990
#        77393
#        96882
#        115672
#        134112
#        149182
#        164364
#        180474
#        200278
#
# Disc length: 2855 seconds
#
# Revision: 0
# Processed by: cddbd v1.5.2PL0 Copyright (c) Steve Scherf et al.
# Submitted via: ExactAudioCopy v1.0b3
#
DISCID=b00b250c
DTITLE=Matt Dusk - My Funny Valentine
DYEAR=2013
DGENRE=
TTITLE0=All The Way
TTITLE1=My Funny Valentine
TTITLE2=Time After Time
TTITLE3=Angel Eyes
TTITLE4=Embarceable You
TTITLE5=Come Rain Or Come Shine
TTITLE6=Deep In A Dream
TTITLE7=There Will Never Be Another You
TTITLE8=That Old Feeling
TTITLE9=Let's Get Lost
TTITLE10=Someone To Watch Over Me
TTITLE11=I Fall In Love Too Easily
EXTD=
EXTT0=
EXTT1=
EXTT2=
EXTT3=
EXTT4=
EXTT5=
EXTT6=
EXTT7=
EXTT8=
EXTT9=
EXTT10=
EXTT11=
PLAYORDER=
